<?xml version="1.0" encoding="utf-8"?>
<!-- Generator: Adobe Illustrator 25.0.1, SVG Export Plug-In . SVG Version: 6.00 Build 0)  -->
<svg version="1.1" id="Capa_1" xmlns="http://www.w3.org/2000/svg" xmlns:xlink="http://www.w3.org/1999/xlink" x="0px" y="0px"
	 viewBox="0 0 1080 1080" style="enable-background:new 0 0 1080 1080;" xml:space="preserve">
<style type="text/css">
	.st0{fill:#FFFFFF;}
	.st1{fill:#9489A8;}
	.st2{fill:#E06577;}
	.st3{fill:#99B1C4;}
	.st4{fill:#F7B06D;}
	.st5{fill:#FFE4AE;}
	.st6{fill:#FFFFFF;stroke:#000000;stroke-width:5;stroke-miterlimit:10;}
	.st7{fill:none;stroke:#000000;stroke-width:2;stroke-linecap:round;stroke-linejoin:round;stroke-miterlimit:10;}
	.st8{stroke:#FFFFFF;stroke-width:3;stroke-miterlimit:10;}
	.st9{fill:none;stroke:#000000;stroke-width:5;stroke-miterlimit:10;}
</style>
<path d="M334.89,674.31c22.72-39.32,15.46-54.49,15.46-54.49c-4.47-32.65-13.42-105.55,23.26-148.04s21.02-57.25,67.09-109.13
	s92.13,0,92.13,0s46.07-51.88,92.13,0c46.07,51.88,30.41,66.64,67.09,109.13c36.67,42.49,27.73,115.39,23.26,148.04
	c0,0-7.35,26.1,17.65,59.83c0,0-60.02,103.67-197.13,101.25C535.83,780.89,411.23,789.71,334.89,674.31"/>
<path class="st0" d="M589.12,708.12c-19.06-29.62-13.72-62.11-13.72-62.11c-10.01,6.53-39.8,16.86-39.8,16.86
	c-16.06-3.4-39.8-16.86-39.8-16.86c0.88,40.18-21.93,63.23-21.93,63.23S520.67,744.05,589.12,708.12"/>
<rect x="46.35" y="-111.6" class="st1" width="197.96" height="69.56"/>
<rect x="442.26" y="-111.6" transform="matrix(-1 -1.224647e-16 1.224647e-16 -1 1082.4878 -153.6327)" class="st2" width="197.96" height="69.56"/>
<rect x="244.31" y="-111.6" class="st3" width="197.96" height="69.56"/>
<rect x="639.73" y="-111.57" transform="matrix(-1 -1.224647e-16 1.224647e-16 -1 1478.0757 -153.5773)" class="st4" width="198.62" height="69.56"/>
<rect x="837.85" y="-111.6" transform="matrix(-1 -1.224647e-16 1.224647e-16 -1 1873.8286 -153.6327)" class="st5" width="198.12" height="69.56"/>
<g>
	<path d="M246.37,399.75c-2.26,4.27-5.29,7.04-9.09,8.3c-3.8,1.26-7.42,0.99-10.85-0.83c-3.57-1.89-5.88-4.29-6.93-7.22
		c-1.05-2.93-1.26-6.17-0.63-9.74c0.63-3.56,1.72-7.24,3.28-11.03c1.55-3.79,3.13-7.46,4.74-11l-8.3-4.38
		c-3.29-1.74-6.3-2.27-9.02-1.61c-2.72,0.67-5.12,2.96-7.19,6.88c-1.04,1.96-1.38,4.13-1.02,6.51c0.35,2.38,1.72,4.2,4.1,5.46
		c1.12,0.59,2.21,0.81,3.28,0.66c1.07-0.15,1.96-0.4,2.67-0.74c0.72-0.34,1.14-0.47,1.28-0.4c0.28,0.15,0.57,0.82,0.88,2.01
		c0.31,1.19,0.09,2.49-0.64,3.89c-1.15,2.17-2.84,3.43-5.08,3.77c-2.24,0.34-4.34-0.01-6.3-1.04c-2.66-1.41-4.33-3.34-5-5.8
		c-0.67-2.46-0.67-5.17,0-8.13c0.67-2.96,1.7-5.77,3.11-8.43c1.66-3.15,3.67-6.01,6.01-8.58c2.34-2.57,5.11-4.24,8.3-5.02
		c3.19-0.78,6.95-0.02,11.29,2.27l24.47,12.93c0.74,0.3,1.67,0.57,2.8,0.81c1.13,0.24,2.27,0.15,3.43-0.27
		c1.16-0.42,2.11-1.32,2.85-2.73c0.26-0.49,0.55-0.83,0.87-1.02c0.32-0.19,0.87-0.08,1.64,0.33c0.63,0.33,0.94,0.94,0.92,1.83
		c-0.02,0.89-0.2,1.82-0.54,2.8c-0.34,0.98-0.68,1.79-1.01,2.42c-1.37,2.59-3.34,4.5-5.92,5.74c-2.58,1.24-5.29,1.33-8.14,0.27
		c1.99,3.02,2.9,6.43,2.72,10.24C249.17,392.7,248.18,396.32,246.37,399.75z M242.47,393.4c1.26-2.38,1.82-4.88,1.68-7.51
		c-0.14-2.62-0.91-5.09-2.33-7.41c-1.42-2.31-3.39-4.14-5.91-5.47l-5.99-3.16c-3.32,7.47-4.88,13.23-4.69,17.27
		c0.19,4.04,2.36,7.16,6.49,9.34C236.49,398.97,240.07,397.95,242.47,393.4z"/>
	<path d="M308.31,347.6c-0.35,0.43-0.83,0.6-1.42,0.52c-0.6-0.08-1.11-0.3-1.54-0.65c-0.87-0.81-1.2-1.44-0.99-1.88
		c0.21-0.44,0.56-0.97,1.06-1.58c1.3-1.59,1.92-2.95,1.87-4.07c-0.06-1.12-0.53-2.14-1.41-3.07c-0.88-0.92-1.84-1.81-2.89-2.66
		l-13.53-11.04l-0.23,0.28c0.26,2.06,0.12,4.62-0.45,7.69s-2,6.01-4.3,8.83c-2.91,3.56-6.49,6.07-10.76,7.55
		c-4.27,1.47-8.82,1.72-13.64,0.74c-4.83-0.97-9.51-3.32-14.05-7.02c-4.05-3.31-6.88-7.28-8.51-11.93
		c-1.62-4.65-2.04-9.36-1.26-14.14c0.78-4.78,2.68-9.01,5.68-12.69c2.95-3.62,5.78-6.01,8.48-7.19c2.7-1.17,4.86-2.07,6.48-2.68
		l0.38-0.46c-0.52-1.24-1.17-2.67-1.95-4.28c-0.78-1.61-0.8-2.87-0.05-3.79c0.45-0.55,0.98-0.83,1.6-0.84
		c0.62-0.01,1.17,0.19,1.66,0.59l51.34,41.92c1.04,0.85,2.09,1.63,3.15,2.34c1.06,0.71,2.15,0.96,3.29,0.77
		c1.13-0.2,2.35-1.09,3.65-2.69c0.5-0.61,0.95-1.07,1.34-1.36s1.07-0.09,2.04,0.6c0.43,0.35,0.74,0.81,0.94,1.38
		c0.2,0.57,0.1,1.1-0.3,1.59c-1.58,1.68-2.99,3.26-4.25,4.73c-1.26,1.48-2.56,3.04-3.92,4.7c-1.3,1.6-2.55,3.16-3.75,4.68
		C310.9,344.02,309.63,345.72,308.31,347.6z M282.46,333.24c1.8-2.21,2.89-4.41,3.26-6.62c0.37-2.2,0.42-4.33,0.16-6.39
		l-24.93-20.36c-1.23-0.49-2.72-0.77-4.47-0.81c-1.75-0.05-3.57,0.33-5.46,1.14c-1.89,0.81-3.71,2.29-5.46,4.44
		c-2.85,3.5-3.56,7.83-2.11,13c1.45,5.17,5.15,10.19,11.1,15.05c2.88,2.35,5.99,4.15,9.32,5.39c3.33,1.24,6.61,1.54,9.84,0.91
		C276.94,338.35,279.85,336.43,282.46,333.24z"/>
	<path d="M330.79,292.81c-4.22,3.35-8.58,4.73-13.08,4.15c-4.5-0.58-8.4-2.94-11.69-7.1l-13.65-17.22
		c-0.89-1.12-1.76-2.12-2.61-3.01c-0.86-0.89-1.83-1.38-2.92-1.48c-1.09-0.1-2.5,0.54-4.24,1.92c-0.56,0.44-1.13,0.77-1.72,0.99
		c-0.59,0.21-1.25-0.15-1.99-1.08c-0.74-0.93-0.68-1.88,0.16-2.86c2.51-2.7,4.35-4.86,5.53-6.51c1.18-1.64,2.04-2.93,2.6-3.88
		c0.56-0.95,1.13-1.7,1.7-2.26c0.45-0.45,0.94-0.69,1.48-0.72c0.54-0.02,1.1,0.34,1.69,1.08l22.36,28.2
		c1.62,2.05,3.4,3.37,5.33,3.96c1.93,0.59,3.83,0.66,5.69,0.19c1.86-0.46,3.5-1.26,4.93-2.39c2.17-1.72,3.76-3.61,4.76-5.67
		c1-2.05,1.59-3.99,1.77-5.8c0.18-1.81,0.16-3.18-0.07-4.11l-15.5-19.55c-0.89-1.12-1.76-2.12-2.61-3.01
		c-0.86-0.89-1.83-1.38-2.92-1.48c-1.09-0.1-2.5,0.54-4.24,1.92c-0.56,0.44-1.13,0.77-1.72,0.99c-0.59,0.21-1.25-0.15-1.99-1.08
		c-0.74-0.93-0.69-1.88,0.16-2.86c2.51-2.7,4.35-4.86,5.53-6.51c1.18-1.64,2.04-2.93,2.6-3.88c0.56-0.95,1.13-1.7,1.7-2.26
		c0.45-0.45,0.94-0.69,1.48-0.72c0.54-0.02,1.1,0.34,1.69,1.08l25.53,32.21c2.9,3.66,6.8,3.55,11.71-0.34
		c0.68-0.54,1.26-0.7,1.75-0.47s0.9,0.56,1.24,0.99c0.69,0.87,0.58,1.81-0.33,2.84l-14.17,12.9c-0.43,0.34-0.83,0.36-1.19,0.03
		c-0.36-0.32-0.73-0.73-1.13-1.23l-4.13-5.21l-0.19,0.15c-0.29,2.05-0.67,4.17-1.11,6.34c-0.45,2.18-1.27,4.32-2.48,6.44
		S333.4,290.75,330.79,292.81z"/>
	<path d="M348.58,196.16c-1.95,1.06-3.91,1.34-5.9,0.85c-1.98-0.5-3.47-1.65-4.45-3.46c-0.87-1.6-0.85-3.46,0.07-5.58
		c0.92-2.12,2.38-3.73,4.4-4.83c1.74-0.95,3.5-1.11,5.27-0.51c1.78,0.61,3.18,1.85,4.2,3.73c0.91,1.67,1.03,3.46,0.35,5.36
		C351.84,193.62,350.52,195.1,348.58,196.16z M371.46,262.7c-0.49,0.27-1.01,0.26-1.57-0.02s-0.97-0.67-1.24-1.15
		c-0.43-1.12-0.46-1.84-0.1-2.18c0.36-0.33,0.89-0.69,1.58-1.07c1.95-1.06,3.09-2.11,3.42-3.15c0.33-1.04,0.25-2.14-0.25-3.31
		c-0.5-1.17-1.08-2.34-1.72-3.53l-13.02-23.88c-0.68-1.25-1.37-2.39-2.06-3.41c-0.69-1.02-1.57-1.67-2.62-1.95
		c-1.06-0.28-2.56,0.11-4.5,1.17c-0.63,0.34-1.25,0.57-1.86,0.68c-0.62,0.11-1.21-0.36-1.78-1.4c-0.57-1.04-0.35-1.97,0.65-2.79
		c2.93-2.23,5.12-4.05,6.56-5.47c1.44-1.41,2.51-2.54,3.23-3.38c0.71-0.84,1.4-1.48,2.06-1.93c0.52-0.37,1.04-0.52,1.58-0.45
		c0.53,0.07,1.03,0.52,1.48,1.36l19.79,36.29c0.65,1.18,1.32,2.3,2.03,3.36c0.71,1.06,1.61,1.72,2.7,1.98
		c1.09,0.26,2.61-0.14,4.56-1.2c0.63-0.34,1.19-0.58,1.7-0.73c0.51-0.14,1.08,0.29,1.72,1.29c0.27,0.49,0.38,1.03,0.35,1.64
		c-0.03,0.6-0.33,1.06-0.88,1.36c-2.09,0.96-4,1.89-5.72,2.78c-1.72,0.89-3.52,1.85-5.4,2.88c-1.88,1.02-3.64,2.01-5.29,2.95
		C375.19,260.37,373.4,261.46,371.46,262.7z"/>
	<path d="M429.89,236.85c-5.74,2.07-11,2.57-15.8,1.52c-4.8-1.05-8.9-3.27-12.31-6.68c-3.41-3.4-5.99-7.52-7.74-12.36
		c-1.18-3.28-1.75-6.67-1.71-10.18c0.04-3.51,0.68-6.94,1.91-10.28c1.23-3.35,3.11-6.32,5.63-8.91c2.52-2.59,5.71-4.58,9.59-5.98
		c6.85-2.47,12.65-2.56,17.39-0.27c4.74,2.29,8.35,6.06,10.83,11.31c0.94,2.61,0.83,4.58-0.33,5.93c-1.16,1.34-2.89,2.43-5.2,3.26
		L404.99,214c1.56,4.32,3.54,7.96,5.95,10.92c2.41,2.96,5.26,4.97,8.54,6.01c3.28,1.05,7.05,0.81,11.29-0.72
		c3.13-1.13,5.57-2.76,7.32-4.91c1.75-2.15,3.07-5.27,3.95-9.38c0.33-0.96,1.13-1.29,2.42-1c0.7,0.08,1.24,0.42,1.62,0.99
		c0.38,0.58,0.5,1.15,0.36,1.7c-1,4.48-2.87,8.4-5.62,11.74C438.08,232.72,434.43,235.22,429.89,236.85z M403.46,209.76l18.22-6.56
		c1.79-0.64,3.09-1.51,3.92-2.61c0.82-1.1,0.97-2.51,0.42-4.26c-1.15-3.2-3.06-5.74-5.71-7.6c-2.65-1.86-5.8-2.14-9.45-0.83
		c-3.73,1.34-6.3,3.95-7.72,7.83C401.72,199.61,401.83,204.29,403.46,209.76z"/>
	<path d="M483.13,223.22c-6.02,1-11.21,0.75-15.59-0.73c-4.38-1.48-6.9-4.26-7.58-8.32c-0.37-2.27,0-4.21,1.14-5.85
		c1.13-1.63,2.79-2.63,4.98-2.99c1.41-0.23,2.62-0.05,3.64,0.54c1.02,0.6,1.56,1.05,1.61,1.36c0.04,0.23-0.32,0.84-1.09,1.81
		c-0.76,0.97-1,2.35-0.7,4.15c0.36,2.19,1.7,3.83,4.01,4.94c2.31,1.1,5.57,1.31,9.79,0.61c3.67-0.61,6.41-1.88,8.22-3.83
		c1.8-1.94,2.47-4.36,1.99-7.25c-0.39-2.34-1.45-4.03-3.19-5.07c-1.74-1.04-3.86-1.75-6.37-2.14c-2.51-0.39-5.18-0.75-8.01-1.08
		c-2.82-0.33-5.55-0.89-8.16-1.66c-2.62-0.77-4.86-2.07-6.72-3.88c-1.87-1.82-3.08-4.45-3.65-7.88c-0.58-3.52,0-6.58,1.73-9.2
		c1.73-2.61,4.15-4.76,7.24-6.44c3.09-1.67,6.32-2.79,9.68-3.35c2.89-0.48,5.69-0.52,8.41-0.13c2.71,0.39,5.05,1.27,7,2.64
		c1.95,1.36,3.13,3.29,3.55,5.79c0.32,1.95-0.01,3.82-1,5.58c-0.99,1.77-2.58,2.83-4.77,3.2c-1.41,0.23-2.62,0.05-3.64-0.54
		c-1.02-0.59-1.56-1.05-1.61-1.36c-0.03-0.16,0.22-0.5,0.73-1.02c0.52-0.53,0.98-1.21,1.41-2.04c0.42-0.83,0.54-1.83,0.35-3.01
		c-0.53-2.24-1.9-3.74-4.11-4.5c-2.21-0.76-4.57-0.93-7.07-0.52c-2.74,0.45-5.16,1.54-7.29,3.25c-2.12,1.72-2.98,3.82-2.57,6.32
		c0.38,2.27,1.15,3.94,2.34,5.03c1.18,1.09,2.92,1.91,5.22,2.45c2.3,0.54,5.25,1.08,8.87,1.6c3.62,0.53,6.83,1.16,9.64,1.9
		c2.81,0.74,5.1,1.95,6.86,3.62c1.76,1.68,2.91,4.15,3.46,7.43c0.54,3.28,0.09,6.37-1.36,9.25c-1.45,2.89-3.68,5.32-6.68,7.3
		C490.85,221.2,487.27,222.53,483.13,223.22z"/>
	<path d="M537.94,219.35c-2.38,0.04-4.64-0.52-6.8-1.67c-2.16-1.15-3.95-2.94-5.37-5.38c-1.43-2.43-2.17-5.51-2.23-9.23l-0.57-34.92
		l-6.88,0.35c-0.55,0.01-0.97-0.2-1.26-0.63c-0.29-0.43-0.43-0.92-0.44-1.48c-0.03-1.58,0.51-2.5,1.62-2.76
		c2.92-0.6,5.12-1.57,6.61-2.9c1.48-1.33,2.63-2.91,3.43-4.75c0.8-1.83,1.54-3.83,2.22-5.98c0.23-0.64,0.58-1.06,1.05-1.26
		c0.47-0.2,0.98-0.31,1.54-0.32c0.48-0.01,1.01,0.1,1.61,0.33s0.9,0.66,0.91,1.29l-0.61,13.55l13.88-1.06
		c0.71-0.09,1.19,0.1,1.43,0.57s0.37,1.02,0.38,1.66c0.01,0.79-0.11,1.59-0.38,2.38c-0.27,0.8-0.59,1.2-0.99,1.2l-13.31-0.14
		l0.59,36.11c0.04,2.3,0.56,4.39,1.59,6.27c1.02,1.88,2.84,2.81,5.45,2.76c0.87-0.01,1.86-0.11,2.97-0.29
		c1.11-0.18,2.29-0.55,3.54-1.13c0.31-0.16,0.63-0.31,0.94-0.43c0.31-0.12,0.63-0.19,0.95-0.19c0.63-0.01,1.11,0.24,1.44,0.75
		c0.32,0.51,0.61,1.04,0.86,1.59c0.25,0.71,0.06,1.27-0.57,1.67c-2.43,1.62-4.67,2.69-6.72,3.2
		C542.76,219.04,540.47,219.31,537.94,219.35z"/>
	<path d="M579.56,221.49c-4.77-0.78-8.35-2.77-10.76-5.98c-2.41-3.2-3.29-6.72-2.67-10.55c0.65-3.99,2.2-6.94,4.64-8.87
		c2.44-1.93,5.45-3.16,9.03-3.7c3.58-0.54,7.41-0.67,11.5-0.4c4.09,0.27,8.07,0.6,11.93,0.99l1.52-9.26
		c0.6-3.67,0.15-6.69-1.34-9.07c-1.5-2.37-4.43-3.92-8.81-4.63c-2.19-0.36-4.36,0.01-6.5,1.1c-2.15,1.09-3.44,2.97-3.87,5.62
		c-0.21,1.25-0.07,2.36,0.42,3.32c0.48,0.96,1,1.73,1.55,2.3c0.55,0.57,0.81,0.94,0.78,1.09c-0.05,0.31-0.59,0.81-1.63,1.48
		c-1.03,0.67-2.33,0.88-3.89,0.63c-2.42-0.4-4.15-1.6-5.18-3.62c-1.04-2.01-1.37-4.12-1.01-6.31c0.49-2.97,1.79-5.16,3.91-6.58
		c2.12-1.42,4.69-2.28,7.71-2.59c3.02-0.31,6.01-0.22,8.98,0.27c3.52,0.58,6.86,1.57,10.04,2.97c3.18,1.4,5.65,3.49,7.4,6.27
		c1.75,2.77,2.23,6.58,1.44,11.43l-4.48,27.31c-0.05,0.79-0.01,1.76,0.12,2.91c0.13,1.15,0.58,2.2,1.35,3.17
		c0.76,0.97,1.93,1.58,3.49,1.84c0.55,0.09,0.96,0.26,1.24,0.5c0.28,0.25,0.35,0.8,0.21,1.66c-0.12,0.7-0.6,1.19-1.44,1.45
		c-0.85,0.26-1.79,0.39-2.83,0.38c-1.04-0.01-1.91-0.07-2.62-0.19c-2.89-0.47-5.33-1.74-7.32-3.79c-1.99-2.05-2.94-4.59-2.84-7.63
		c-2.23,2.84-5.18,4.79-8.84,5.83C587.14,221.9,583.39,222.11,579.56,221.49z M584.35,215.77c2.66,0.44,5.21,0.17,7.65-0.79
		c2.45-0.96,4.54-2.49,6.29-4.57c1.74-2.08,2.85-4.53,3.31-7.34l1.09-6.68c-8.14-0.77-14.09-0.42-17.87,1.04
		c-3.77,1.47-6.04,4.51-6.79,9.12C577.17,211.87,579.27,214.94,584.35,215.77z"/>
	<path d="M644.25,236.3l2.39-44.76c-0.03-3.19-0.35-5.58-0.97-7.18c-0.62-1.59-1.96-3-4.02-4.21c-0.89-0.55-1.46-0.96-1.73-1.25
		c-0.27-0.28-0.24-0.92,0.09-1.9c0.45-1.27,1.08-1.8,1.89-1.59c0.81,0.21,1.78,0.52,2.91,0.9c4.62,1.69,7.88,3.84,9.78,6.45
		c1.91,2.61,2.89,6.08,2.96,10.4l-1.9,32.59l0.33,0.14c1.71-2.03,3.83-4.59,6.35-7.7c2.51-3.11,5.1-6.33,7.76-9.68
		c2.66-3.35,5.11-6.46,7.36-9.34c2.25-2.88,3.93-5.02,5.04-6.45l5.25,2.22l-0.9,43.97l0.33,0.14c2.31-2.63,4.72-5.59,7.23-8.88
		c2.5-3.28,4.87-6.45,7.11-9.51c2.23-3.05,4.1-5.55,5.61-7.49c1.27-1.78,1.73-3.09,1.4-3.92c-0.34-0.83-1.53-1.68-3.57-2.54
		c-0.66-0.28-1.18-0.56-1.57-0.86c-0.39-0.29-0.39-1,0-2.13c0.18-0.44,0.51-0.86,0.98-1.26c0.47-0.4,0.96-0.5,1.47-0.28
		c2.08,0.97,3.89,1.82,5.43,2.55c1.54,0.74,3.25,1.5,5.15,2.3c1.9,0.8,3.39,1.39,4.48,1.76c1.09,0.37,2.7,0.97,4.85,1.79
		c0.58,0.25,0.89,0.68,0.93,1.3c0.04,0.62-0.03,1.15-0.22,1.58c-0.54,1.06-1.06,1.55-1.58,1.46c-0.52-0.09-1.07-0.26-1.66-0.51
		c-2.63-1.11-4.87-1.54-6.74-1.3c-1.87,0.24-3.67,1.5-5.4,3.78l-29.2,35.25l-6.46-2.73l1.21-41.65l-25.94,31.21L644.25,236.3z"/>
	<path d="M719.49,275.37c-3.9-2.86-6.19-6.26-6.88-10.2c-0.69-3.94,0.11-7.48,2.41-10.61c2.39-3.26,5.11-5.19,8.16-5.8
		c3.05-0.61,6.29-0.34,9.73,0.8c3.43,1.14,6.91,2.76,10.43,4.85c3.52,2.09,6.92,4.19,10.19,6.29l5.55-7.57c2.2-3,3.17-5.9,2.91-8.69
		c-0.26-2.79-2.18-5.5-5.75-8.12c-1.79-1.31-3.89-1.97-6.29-1.96c-2.41,0-4.41,1.09-6,3.26c-0.75,1.02-1.13,2.07-1.13,3.15
		c0,1.08,0.11,1.99,0.34,2.75c0.23,0.76,0.3,1.2,0.2,1.33c-0.19,0.26-0.9,0.45-2.12,0.58c-1.23,0.13-2.48-0.27-3.75-1.21
		c-1.98-1.45-2.97-3.31-2.98-5.58c-0.01-2.27,0.64-4.29,1.95-6.08c1.78-2.43,3.93-3.79,6.47-4.1c2.53-0.3,5.21,0.09,8.04,1.19
		c2.83,1.09,5.46,2.53,7.89,4.31c2.87,2.11,5.41,4.51,7.61,7.2c2.2,2.69,3.45,5.67,3.75,8.94c0.3,3.27-1,6.88-3.9,10.84
		l-16.37,22.32c-0.41,0.69-0.81,1.57-1.21,2.65c-0.4,1.08-0.48,2.23-0.24,3.44c0.24,1.21,1,2.28,2.28,3.22
		c0.45,0.33,0.74,0.67,0.88,1.01c0.14,0.35-0.05,0.87-0.57,1.57c-0.42,0.57-1.07,0.79-1.94,0.64c-0.87-0.15-1.77-0.47-2.69-0.95
		c-0.92-0.48-1.67-0.93-2.25-1.35c-2.36-1.73-3.97-3.97-4.81-6.7c-0.85-2.73-0.54-5.43,0.92-8.09c-3.28,1.52-6.79,1.92-10.52,1.19
		S722.62,277.66,719.49,275.37z M726.35,272.44c2.17,1.59,4.56,2.51,7.18,2.76c2.62,0.25,5.17-0.16,7.67-1.22
		c2.5-1.06,4.59-2.75,6.28-5.04l4-5.46c-6.91-4.38-12.37-6.77-16.4-7.17c-4.03-0.4-7.42,1.28-10.19,5.05
		C721.71,265.71,722.2,269.4,726.35,272.44z"/>
	<path d="M756.95,303.88c-0.39-0.39-0.53-0.9-0.42-1.51c0.11-0.62,0.36-1.12,0.76-1.51c0.9-0.78,1.57-1.04,2.02-0.76
		c0.45,0.28,0.92,0.67,1.43,1.18c1.57,1.57,2.91,2.38,4.03,2.44c1.12,0.06,2.17-0.32,3.15-1.13c0.98-0.81,1.95-1.69,2.9-2.65
		l40.99-40.99c1.01-1.01,1.9-1.99,2.69-2.94c0.78-0.95,1.16-1.97,1.13-3.07c-0.03-1.09-0.83-2.42-2.39-3.99
		c-0.5-0.5-0.9-1.04-1.18-1.6c-0.28-0.56,0-1.26,0.84-2.1c0.84-0.84,1.79-0.9,2.86-0.17c2.97,2.18,5.33,3.77,7.1,4.75
		c1.76,0.98,3.15,1.69,4.16,2.14c1.01,0.45,1.82,0.92,2.44,1.43c0.5,0.39,0.8,0.85,0.88,1.39c0.08,0.53-0.21,1.13-0.88,1.81
		l-50.98,50.98c-0.95,0.95-1.83,1.92-2.65,2.9c-0.81,0.98-1.19,2.03-1.13,3.15c0.06,1.12,0.87,2.46,2.44,4.03
		c0.5,0.5,0.9,0.98,1.18,1.43c0.28,0.45,0.03,1.12-0.76,2.02c-0.39,0.39-0.88,0.66-1.47,0.8c-0.59,0.14-1.11-0.01-1.55-0.46
		c-1.51-1.74-2.94-3.3-4.28-4.7c-1.34-1.4-2.77-2.86-4.28-4.37c-1.51-1.51-2.95-2.93-4.33-4.24
		C760.24,306.81,758.69,305.39,756.95,303.88z"/>
	<path d="M783.03,331.02c-0.34-0.44-0.42-0.95-0.24-1.55c0.18-0.6,0.49-1.07,0.92-1.41c0.98-0.68,1.68-0.85,2.09-0.52
		c0.41,0.33,0.84,0.77,1.28,1.33c1.38,1.74,2.62,2.7,3.72,2.88c1.11,0.19,2.19-0.07,3.26-0.76c1.07-0.69,2.13-1.46,3.18-2.29
		l45.44-35.99c1.12-0.89,2.12-1.75,3.01-2.61c0.89-0.85,1.38-1.83,1.48-2.91c0.1-1.09-0.54-2.5-1.92-4.24
		c-0.44-0.56-0.77-1.13-0.98-1.72c-0.21-0.59,0.15-1.25,1.08-1.99c0.93-0.74,1.88-0.68,2.86,0.16c2.69,2.51,4.86,4.35,6.5,5.53
		c1.64,1.18,2.93,2.05,3.88,2.61c0.95,0.56,1.7,1.13,2.25,1.7c0.45,0.45,0.69,0.94,0.72,1.48c0.02,0.54-0.34,1.1-1.08,1.69
		l-56.52,44.77c-1.06,0.84-2.04,1.69-2.96,2.57c-0.92,0.88-1.42,1.88-1.49,3c-0.07,1.12,0.58,2.55,1.96,4.29
		c0.44,0.56,0.78,1.08,1,1.55c0.23,0.48-0.1,1.11-0.98,1.92c-0.43,0.34-0.95,0.55-1.55,0.62c-0.6,0.07-1.1-0.14-1.49-0.64
		c-1.3-1.9-2.54-3.62-3.71-5.17c-1.17-1.55-2.42-3.16-3.75-4.83c-1.33-1.68-2.6-3.25-3.81-4.71
		C785.96,334.31,784.58,332.72,783.03,331.02z"/>
	<path d="M786.62,377.29c-1.12-2-1.73-4.14-1.82-6.4c-0.09-2.26,0.32-4.33,1.22-6.2c0.9-1.87,2.22-3.29,3.95-4.26
		c1.9-0.98,3.56-1.38,4.97-1.22c1.41,0.16,2.55,0.59,3.44,1.27c0.88,0.68,1.54,1.32,1.95,1.9c0.42,0.58,0.59,0.8,0.51,0.67
		c0.74,1.31,1.04,2.46,0.91,3.44c-0.13,0.98-0.37,1.57-0.71,1.76c-0.14,0.08-0.61,0-1.42-0.23s-1.89-0.01-3.24,0.66
		c-1.28,0.63-2.28,1.69-2.99,3.17c-0.71,1.49-0.58,3.09,0.39,4.82c1.08,1.93,2.78,3.3,5.09,4.09c2.31,0.79,4.84,1.23,7.61,1.31
		c2.77,0.08,5.37,0.03,7.81-0.16c1.79-0.37,3.36-1.29,4.71-2.78c2.8-3.75,5.86-7.6,9.18-11.55c3.32-3.95,6.53-7.77,9.64-11.47
		c3.1-3.69,5.73-7.1,7.89-10.21c1.93-2.54,3.15-4.63,3.64-6.26c0.49-1.64,0.29-3.57-0.59-5.8c-0.37-0.98-0.57-1.66-0.6-2.05
		c-0.04-0.39,0.37-0.87,1.23-1.44c1.13-0.73,1.96-0.76,2.47-0.09c0.51,0.67,1.09,1.5,1.74,2.5c2.61,4.17,3.87,7.86,3.77,11.1
		c-0.1,3.23-1.44,6.57-4.04,10.03c-1.6,2.17-3.66,4.73-6.18,7.69c-2.52,2.96-5.03,6-7.54,9.13c-2.51,3.13-4.73,6.06-6.66,8.77
		l0.17,0.31l32.84-5.07c2.39-0.43,3.65-1.1,3.79-1.99c0.13-0.89-0.38-2.38-1.54-4.45c-0.35-0.62-0.59-1.17-0.72-1.64
		c-0.13-0.47,0.3-1.04,1.3-1.68c0.41-0.23,0.93-0.36,1.55-0.39c0.62-0.03,1.06,0.2,1.34,0.68c1.05,2.04,1.95,3.81,2.7,5.3
		c0.74,1.49,1.62,3.13,2.63,4.93c0.7,1.24,1.27,2.23,1.74,2.98c0.46,0.74,0.94,1.52,1.44,2.32c0.5,0.81,1.15,1.85,1.96,3.12
		c0.31,0.55,0.29,1.08-0.06,1.6c-0.35,0.51-0.73,0.89-1.14,1.12c-1.08,0.51-1.79,0.57-2.15,0.18c-0.36-0.39-0.69-0.86-1-1.42
		c-1.28-2.28-2.71-3.86-4.29-4.74c-1.58-0.88-3.86-1.13-6.82-0.74c-4.41,0.56-8.39,1.07-11.95,1.53c-3.56,0.45-7.31,0.92-11.26,1.41
		c-3.95,0.49-7.7,0.96-11.26,1.41c-3.56,0.45-6.48,0.82-8.78,1.11c-2.29,0.29-3.52,0.43-3.7,0.44c-2.64,0.3-5.59,0.52-8.82,0.66
		c-3.24,0.13-6.42-0.03-9.54-0.5c-3.13-0.47-6-1.38-8.61-2.73C790.14,381.9,788.09,379.91,786.62,377.29z"/>
</g>
<g>
	<path d="M188.47,721.03c-2.43-4-3.22-7.9-2.38-11.68c0.84-3.79,2.87-6.66,6.08-8.61c3.34-2.03,6.49-2.76,9.45-2.17
		c2.96,0.58,5.76,2.02,8.41,4.32c2.65,2.3,5.17,5.03,7.55,8.21c2.38,3.18,4.64,6.31,6.79,9.41l7.77-4.72
		c3.08-1.87,5.02-4.11,5.83-6.7c0.8-2.6,0.09-5.73-2.14-9.4c-1.12-1.84-2.75-3.2-4.91-4.09c-2.16-0.89-4.35-0.66-6.58,0.7
		c-1.05,0.64-1.78,1.44-2.18,2.4c-0.4,0.96-0.64,1.83-0.72,2.59c-0.08,0.76-0.18,1.19-0.31,1.27c-0.26,0.16-0.97,0.07-2.11-0.26
		c-1.15-0.34-2.12-1.16-2.92-2.47c-1.24-2.03-1.44-4.06-0.61-6.1c0.83-2.03,2.16-3.6,4-4.72c2.49-1.51,4.93-1.94,7.31-1.27
		c2.38,0.66,4.63,2.01,6.76,4.04c2.13,2.03,3.95,4.29,5.47,6.78c1.79,2.95,3.17,6.04,4.15,9.26c0.97,3.23,0.99,6.36,0.05,9.4
		c-0.94,3.04-3.44,5.79-7.51,8.26l-22.92,13.92c-0.62,0.46-1.3,1.11-2.06,1.93c-0.76,0.82-1.25,1.82-1.48,2.99
		c-0.23,1.17,0.05,2.41,0.85,3.73c0.28,0.46,0.41,0.87,0.41,1.23c-0.01,0.36-0.37,0.76-1.09,1.2c-0.59,0.36-1.25,0.31-1.97-0.15
		c-0.73-0.46-1.41-1.07-2.06-1.84c-0.65-0.77-1.15-1.45-1.51-2.04c-1.47-2.43-2.08-5.02-1.83-7.78c0.25-2.76,1.53-5.06,3.82-6.9
		c-3.5,0.15-6.79-0.79-9.87-2.83C192.94,726.87,190.42,724.25,188.47,721.03z M195.7,720.96c1.35,2.23,3.16,3.94,5.41,5.13
		c2.25,1.19,4.69,1.77,7.32,1.75c2.63-0.03,5.13-0.76,7.49-2.19l5.61-3.41c-4.56-6.48-8.57-10.64-12.03-12.49
		c-3.46-1.85-7.12-1.6-10.99,0.75C194.04,713.21,193.11,716.69,195.7,720.96z"/>
	<path d="M225.59,809.17c-0.36-0.4-0.46-0.88-0.29-1.44c0.17-0.56,0.45-1.02,0.85-1.38c0.91-0.71,1.56-0.94,1.95-0.67
		c0.39,0.27,0.85,0.68,1.36,1.25c1.33,1.48,2.54,2.28,3.62,2.39c1.08,0.11,2.13-0.19,3.14-0.89c1.02-0.71,2.01-1.5,2.98-2.37
		l12.58-11.31l-0.23-0.26c-2.01-0.05-4.44-0.57-7.29-1.57c-2.85-0.99-5.46-2.8-7.82-5.43c-2.98-3.31-4.85-7.12-5.63-11.42
		c-0.78-4.31-0.34-8.7,1.31-13.17c1.65-4.48,4.58-8.61,8.81-12.41c3.77-3.39,7.99-5.51,12.69-6.38c4.69-0.87,9.27-0.57,13.73,0.89
		c4.46,1.46,8.23,3.9,11.31,7.32c3.03,3.37,4.9,6.43,5.63,9.18c0.72,2.76,1.26,4.96,1.61,6.61l0.38,0.43
		c1.27-0.31,2.73-0.73,4.39-1.23c1.66-0.51,2.87-0.34,3.64,0.52c0.46,0.51,0.65,1.07,0.56,1.66c-0.09,0.59-0.36,1.09-0.81,1.5
		l-47.75,42.95c-0.97,0.87-1.87,1.76-2.71,2.67c-0.83,0.91-1.24,1.92-1.22,3.03c0.02,1.11,0.7,2.41,2.03,3.9
		c0.51,0.57,0.88,1.07,1.1,1.49c0.22,0.42-0.07,1.04-0.87,1.87c-0.4,0.36-0.89,0.59-1.46,0.7c-0.58,0.1-1.07-0.07-1.48-0.53
		c-1.37-1.76-2.67-3.35-3.9-4.77c-1.23-1.42-2.54-2.91-3.92-4.45c-1.33-1.48-2.64-2.91-3.93-4.28
		C228.64,812.18,227.19,810.72,225.59,809.17z M243.17,786.55c1.85,2.05,3.8,3.42,5.85,4.1c2.06,0.68,4.09,1.05,6.1,1.1l23.19-20.86
		c0.65-1.11,1.14-2.49,1.44-4.16c0.3-1.67,0.21-3.47-0.29-5.39c-0.5-1.93-1.64-3.89-3.44-5.89c-2.92-3.25-6.97-4.57-12.14-3.94
		s-10.52,3.42-16.05,8.4c-2.68,2.41-4.86,5.12-6.54,8.13c-1.68,3.01-2.46,6.1-2.33,9.29C239.1,780.5,240.5,783.58,243.17,786.55z"/>
	<path d="M293.79,840.87c-4.2-3.1-6.6-6.82-7.2-11.18c-0.6-4.35,0.62-8.6,3.68-12.74l12.64-17.13c0.82-1.11,1.54-2.18,2.15-3.21
		c0.61-1.02,0.83-2.06,0.64-3.1c-0.19-1.04-1.14-2.2-2.87-3.48c-0.56-0.41-1.01-0.86-1.36-1.36c-0.35-0.5-0.18-1.21,0.5-2.13
		c0.68-0.93,1.59-1.12,2.71-0.57c3.16,1.66,5.65,2.84,7.49,3.52c1.83,0.68,3.26,1.17,4.29,1.45c1.03,0.28,1.88,0.62,2.54,1.02
		c0.54,0.3,0.89,0.7,1.05,1.2c0.16,0.5-0.04,1.12-0.58,1.86l-20.71,28.06c-1.5,2.04-2.29,4.03-2.35,5.99
		c-0.06,1.96,0.36,3.75,1.26,5.37c0.9,1.62,2.06,2.95,3.48,4c2.16,1.59,4.33,2.6,6.5,3.01c2.17,0.41,4.13,0.47,5.87,0.18
		c1.74-0.29,3.01-0.66,3.82-1.11l14.35-19.45c0.82-1.11,1.54-2.18,2.15-3.21c0.61-1.02,0.83-2.06,0.64-3.1
		c-0.19-1.04-1.14-2.2-2.87-3.48c-0.56-0.41-1.01-0.86-1.36-1.36c-0.35-0.5-0.18-1.21,0.5-2.13c0.68-0.93,1.59-1.12,2.71-0.57
		c3.16,1.66,5.65,2.84,7.49,3.52c1.83,0.68,3.26,1.17,4.29,1.45c1.03,0.28,1.88,0.62,2.54,1.02c0.54,0.3,0.89,0.7,1.04,1.2
		c0.16,0.5-0.04,1.12-0.58,1.86l-23.64,32.05c-2.69,3.64-1.59,7.26,3.28,10.86c0.68,0.5,0.98,1.01,0.89,1.51
		c-0.09,0.51-0.29,0.98-0.61,1.41c-0.64,0.87-1.55,1-2.74,0.41l-15.66-9.98c-0.43-0.32-0.54-0.69-0.33-1.1
		c0.21-0.42,0.5-0.87,0.86-1.37l3.83-5.19l-0.19-0.14c-1.99,0.25-4.06,0.43-6.21,0.57c-2.15,0.13-4.36-0.1-6.65-0.68
		C298.83,844.03,296.39,842.78,293.79,840.87z"/>
	<path d="M344.73,872.96c-0.48-0.25-0.76-0.67-0.84-1.27c-0.08-0.6,0-1.14,0.25-1.62c0.66-0.95,1.22-1.38,1.69-1.27
		c0.46,0.11,1.03,0.34,1.72,0.69c1.91,0.98,3.37,1.32,4.39,1.03c1.01-0.3,1.85-0.97,2.52-2.01c0.66-1.04,1.29-2.14,1.89-3.3
		l12.04-23.45c0.63-1.23,1.17-2.4,1.61-3.51c0.44-1.11,0.49-2.17,0.14-3.17c-0.35-1-1.48-1.99-3.39-2.97
		c-0.61-0.32-1.13-0.69-1.56-1.12c-0.43-0.43-0.37-1.16,0.15-2.19c0.53-1.02,1.39-1.36,2.58-1c3.38,1.14,6.04,1.89,7.95,2.27
		c1.92,0.38,3.41,0.63,4.47,0.74c1.06,0.11,1.95,0.31,2.67,0.59c0.58,0.21,0.99,0.55,1.22,1.02c0.23,0.47,0.14,1.11-0.28,1.93
		l-18.3,35.63c-0.6,1.16-1.12,2.31-1.58,3.46c-0.46,1.15-0.5,2.23-0.11,3.24c0.38,1.02,1.53,2.01,3.44,3
		c0.61,0.32,1.12,0.64,1.51,0.97c0.39,0.33,0.36,1.03-0.1,2.08c-0.25,0.48-0.62,0.87-1.12,1.17c-0.5,0.3-1.02,0.31-1.57,0.04
		c-1.91-1.16-3.69-2.18-5.35-3.07c-1.66-0.89-3.4-1.81-5.25-2.76c-1.84-0.95-3.59-1.82-5.25-2.63
		C348.63,874.68,346.78,873.84,344.73,872.96z M385.58,818.37c-1.91-0.98-3.21-2.4-3.89-4.26c-0.68-1.86-0.57-3.68,0.34-5.45
		c0.81-1.57,2.31-2.57,4.51-2.99c2.2-0.42,4.29-0.12,6.27,0.89c1.71,0.88,2.8,2.19,3.28,3.95c0.48,1.75,0.24,3.55-0.7,5.4
		c-0.84,1.64-2.21,2.7-4.1,3.2C389.39,819.6,387.49,819.35,385.58,818.37z"/>
	<path d="M410.35,902.67c-5.59-1.91-9.88-4.72-12.87-8.42c-2.99-3.7-4.75-7.87-5.27-12.51c-0.52-4.64,0.03-9.32,1.64-14.04
		c1.09-3.19,2.72-6.11,4.88-8.73c2.16-2.63,4.71-4.83,7.68-6.62c2.96-1.78,6.18-2.89,9.65-3.33c3.47-0.43,7.1,0,10.87,1.29
		c6.68,2.29,11.12,5.73,13.31,10.33c2.2,4.6,2.64,9.64,1.33,15.12c-0.87,2.54-2.15,3.97-3.84,4.28c-1.69,0.32-3.66,0.08-5.91-0.68
		l-26.46-9.06c-1.44,4.21-2.15,8.17-2.12,11.87c0.03,3.7,0.97,6.94,2.82,9.72c1.85,2.78,4.84,4.88,8.98,6.3
		c3.05,1.04,5.89,1.29,8.51,0.72c2.63-0.56,5.51-2.13,8.66-4.7c0.83-0.53,1.64-0.29,2.43,0.71c0.48,0.49,0.69,1.07,0.62,1.73
		c-0.07,0.67-0.32,1.17-0.76,1.5c-3.47,2.79-7.26,4.61-11.36,5.48C419.05,904.51,414.78,904.19,410.35,902.67z M406.79,866.17
		l17.75,6.08c1.74,0.6,3.26,0.73,4.55,0.4c1.29-0.33,2.25-1.32,2.9-2.96c1.07-3.12,1.16-6.19,0.29-9.21
		c-0.87-3.01-3.09-5.13-6.65-6.35c-3.63-1.24-7.16-0.83-10.58,1.24C411.62,857.44,408.87,861.04,406.79,866.17z"/>
	<path d="M473.8,918.27c-5.84-0.93-10.54-2.75-14.1-5.46c-3.57-2.71-5.04-6.03-4.41-9.97c0.35-2.2,1.3-3.87,2.84-5.02
		c1.54-1.15,3.38-1.56,5.5-1.22c1.36,0.22,2.42,0.76,3.18,1.62c0.75,0.86,1.11,1.44,1.06,1.74c-0.04,0.23-0.55,0.67-1.55,1.33
		c-1,0.66-1.64,1.86-1.92,3.6c-0.34,2.12,0.38,4.04,2.17,5.77c1.78,1.72,4.72,2.91,8.81,3.57c3.56,0.57,6.47,0.24,8.73-0.99
		c2.26-1.23,3.61-3.25,4.06-6.05c0.36-2.27-0.09-4.15-1.37-5.64s-3.01-2.79-5.2-3.92c-2.19-1.13-4.53-2.28-7.02-3.46
		c-2.49-1.17-4.82-2.52-6.99-4.03c-2.17-1.51-3.83-3.39-4.98-5.63c-1.16-2.24-1.47-5.03-0.93-8.37c0.55-3.41,2.02-6.05,4.41-7.92
		c2.4-1.87,5.28-3.1,8.63-3.69c3.36-0.59,6.67-0.62,9.92-0.1c2.8,0.45,5.39,1.27,7.76,2.47c2.37,1.2,4.25,2.72,5.62,4.57
		c1.37,1.85,1.87,3.99,1.48,6.41c-0.3,1.89-1.18,3.5-2.64,4.82c-1.46,1.32-3.24,1.81-5.36,1.47c-1.36-0.22-2.43-0.76-3.18-1.62
		c-0.76-0.86-1.11-1.44-1.06-1.74c0.02-0.15,0.35-0.39,0.99-0.72c0.63-0.33,1.27-0.81,1.92-1.44c0.64-0.63,1.06-1.52,1.24-2.66
		c0.2-2.22-0.6-4.02-2.4-5.4c-1.8-1.38-3.91-2.26-6.34-2.65c-2.65-0.42-5.22-0.17-7.7,0.75c-2.48,0.93-3.91,2.6-4.3,5.02
		c-0.35,2.2-0.15,3.98,0.6,5.34c0.75,1.36,2.1,2.65,4.05,3.85c1.94,1.21,4.5,2.6,7.66,4.2c3.16,1.6,5.92,3.16,8.28,4.71
		c2.36,1.54,4.09,3.35,5.19,5.43c1.1,2.08,1.4,4.71,0.89,7.89s-1.87,5.88-4.09,8.09c-2.22,2.21-5.01,3.76-8.38,4.66
		C481.51,918.78,477.82,918.91,473.8,918.27z"/>
	<path d="M537.89,924.03c-2.3-0.04-4.48-0.65-6.53-1.83c-2.05-1.18-3.73-2.98-5.04-5.38c-1.3-2.4-1.93-5.4-1.87-9.01l0.55-33.83
		l-6.68,0.12c-0.54-0.01-0.94-0.23-1.2-0.65c-0.26-0.42-0.39-0.91-0.38-1.44c0.02-1.53,0.58-2.41,1.65-2.62
		c2.85-0.49,5.01-1.36,6.49-2.6c1.48-1.24,2.63-2.74,3.47-4.49c0.83-1.75,1.61-3.66,2.34-5.72c0.24-0.61,0.59-1.01,1.06-1.19
		c0.46-0.18,0.96-0.27,1.5-0.26c0.46,0.01,0.98,0.13,1.55,0.37c0.57,0.24,0.85,0.67,0.84,1.28l-1.02,13.11l13.48-0.59
		c0.69-0.06,1.15,0.13,1.37,0.6s0.33,1,0.32,1.62c-0.01,0.77-0.16,1.53-0.44,2.3c-0.28,0.76-0.62,1.14-1,1.13l-12.88-0.55
		l-0.57,34.99c-0.04,2.23,0.41,4.27,1.34,6.12c0.93,1.86,2.66,2.81,5.19,2.85c0.84,0.01,1.8-0.05,2.88-0.18
		c1.08-0.13,2.23-0.46,3.47-0.98c0.31-0.15,0.62-0.28,0.93-0.39s0.62-0.16,0.92-0.16c0.61,0.01,1.07,0.27,1.37,0.77
		c0.3,0.5,0.56,1.03,0.78,1.57c0.22,0.69,0.02,1.23-0.6,1.6c-2.4,1.5-4.61,2.46-6.61,2.89
		C542.57,923.88,540.35,924.07,537.89,924.03z"/>
	<path d="M588.89,920.41c-4.63,0.69-8.53-0.09-11.69-2.33c-3.17-2.24-5.02-5.23-5.58-8.95c-0.58-3.87-0.02-7.06,1.66-9.56
		c1.68-2.5,4.1-4.53,7.24-6.08c3.14-1.55,6.64-2.81,10.49-3.77c3.85-0.96,7.62-1.83,11.31-2.61l-1.34-8.99
		c-0.53-3.57-1.84-6.22-3.92-7.97c-2.08-1.75-5.25-2.3-9.5-1.67c-2.12,0.32-4.02,1.3-5.67,2.94c-1.66,1.64-2.29,3.75-1.91,6.33
		c0.18,1.22,0.64,2.2,1.37,2.94c0.73,0.75,1.43,1.3,2.11,1.67c0.67,0.37,1.02,0.62,1.05,0.78c0.04,0.3-0.31,0.92-1.06,1.85
		c-0.75,0.93-1.89,1.5-3.41,1.73c-2.35,0.35-4.3-0.25-5.85-1.81c-1.55-1.55-2.48-3.39-2.8-5.52c-0.43-2.88,0.12-5.29,1.66-7.23
		c1.53-1.93,3.65-3.49,6.35-4.67c2.69-1.17,5.48-1.98,8.37-2.41c3.42-0.51,6.8-0.58,10.15-0.23c3.35,0.36,6.24,1.56,8.68,3.6
		c2.44,2.04,4.01,5.42,4.71,10.12l3.94,26.53c0.19,0.75,0.51,1.63,0.98,2.65c0.46,1.02,1.19,1.86,2.18,2.53
		c0.99,0.67,2.24,0.89,3.76,0.66c0.53-0.08,0.96-0.04,1.29,0.1c0.33,0.15,0.56,0.64,0.68,1.47c0.1,0.68-0.2,1.27-0.9,1.76
		c-0.7,0.49-1.54,0.89-2.5,1.19c-0.96,0.3-1.79,0.5-2.47,0.6c-2.81,0.42-5.43-0.03-7.88-1.33c-2.44-1.3-4.07-3.37-4.88-6.2
		c-1.22,3.28-3.36,5.95-6.43,8S592.61,919.86,588.89,920.41z M591.62,913.72c2.58-0.38,4.86-1.38,6.83-2.99
		c1.97-1.61,3.45-3.63,4.45-6.07c0.99-2.44,1.29-5.02,0.88-7.75l-0.96-6.49c-7.74,1.69-13.13,3.78-16.18,6.25
		c-3.05,2.47-4.24,5.94-3.57,10.42C583.83,912.24,586.68,914.45,591.62,913.72z"/>
	<path d="M666.91,902.76l-28.54-32.74c-2.17-2.2-4.01-3.65-5.51-4.34c-1.5-0.69-3.38-0.76-5.64-0.22c-0.99,0.22-1.67,0.32-2.04,0.3
		c-0.38-0.02-0.78-0.48-1.22-1.38c-0.54-1.19-0.46-1.98,0.25-2.38c0.71-0.4,1.59-0.84,2.63-1.33c4.35-1.94,8.07-2.64,11.16-2.12
		c3.09,0.53,6.11,2.28,9.08,5.24l20.67,23.95l0.32-0.12c-0.18-2.57-0.44-5.78-0.78-9.64c-0.35-3.86-0.73-7.85-1.13-11.97
		c-0.41-4.12-0.8-7.94-1.18-11.46c-0.38-3.52-0.66-6.14-0.84-7.88l5.15-2l29.04,31.19l0.32-0.12c-0.17-3.39-0.49-7.08-0.96-11.05
		c-0.48-3.97-0.97-7.77-1.47-11.41c-0.51-3.63-0.89-6.63-1.15-9c-0.32-2.1-0.88-3.32-1.67-3.67c-0.8-0.35-2.19-0.13-4.2,0.64
		c-0.64,0.25-1.2,0.41-1.67,0.46s-0.95-0.43-1.44-1.48c-0.17-0.43-0.22-0.94-0.17-1.54c0.05-0.6,0.33-0.99,0.83-1.19
		c2.1-0.73,3.93-1.36,5.5-1.89c1.57-0.53,3.28-1.15,5.14-1.87c1.86-0.72,3.29-1.32,4.3-1.8c1.01-0.47,2.54-1.15,4.58-2.03
		c0.57-0.22,1.08-0.13,1.53,0.27c0.44,0.4,0.75,0.82,0.92,1.25c0.34,1.1,0.31,1.79-0.12,2.08c-0.42,0.29-0.92,0.54-1.49,0.77
		c-2.58,1-4.43,2.22-5.56,3.64c-1.13,1.43-1.53,3.52-1.21,6.27l3.48,44.21l-6.33,2.46l-27.26-29.78l3.02,39.21L666.91,902.76z"/>
	<path d="M755,860.57c-3.89,2.61-7.74,3.58-11.56,2.9c-3.82-0.67-6.78-2.57-8.87-5.69c-2.18-3.25-3.04-6.36-2.6-9.35
		c0.45-2.98,1.76-5.85,3.93-8.6c2.17-2.75,4.79-5.38,7.86-7.91c3.07-2.52,6.1-4.92,9.09-7.21l-5.07-7.55
		c-2.01-2.99-4.33-4.83-6.96-5.52c-2.63-0.68-5.73,0.17-9.3,2.56c-1.78,1.2-3.07,2.89-3.86,5.09c-0.79,2.2-0.46,4.38,0.99,6.54
		c0.68,1.02,1.51,1.71,2.5,2.07c0.98,0.36,1.85,0.56,2.62,0.6c0.77,0.04,1.19,0.12,1.28,0.25c0.17,0.25,0.11,0.96-0.17,2.12
		c-0.29,1.16-1.06,2.17-2.34,3.02c-1.98,1.33-4,1.62-6.06,0.88c-2.07-0.74-3.7-2-4.89-3.79c-1.62-2.42-2.16-4.83-1.6-7.24
		c0.56-2.41,1.8-4.72,3.73-6.94c1.93-2.22,4.11-4.14,6.53-5.76c2.87-1.92,5.89-3.44,9.07-4.56c3.18-1.11,6.31-1.27,9.38-0.47
		c3.08,0.8,5.94,3.18,8.59,7.13l14.94,22.27c0.49,0.6,1.16,1.25,2.02,1.97c0.85,0.72,1.87,1.17,3.05,1.35
		c1.18,0.18,2.41-0.16,3.68-1.02c0.44-0.3,0.85-0.45,1.21-0.47c0.36-0.01,0.78,0.33,1.25,1.03c0.38,0.57,0.37,1.23-0.06,1.98
		c-0.42,0.75-1.01,1.46-1.75,2.14c-0.74,0.68-1.4,1.22-1.97,1.6c-2.36,1.58-4.92,2.31-7.69,2.18c-2.77-0.13-5.12-1.3-7.06-3.51
		c0.31,3.49-0.49,6.82-2.38,9.98C760.63,855.85,758.12,858.48,755,860.57z M754.59,853.36c2.17-1.45,3.79-3.33,4.88-5.63
		c1.09-2.3,1.56-4.77,1.42-7.39c-0.15-2.63-0.99-5.09-2.53-7.38l-3.65-5.45c-6.26,4.85-10.24,9.04-11.94,12.58
		c-1.69,3.54-1.28,7.19,1.24,10.95C746.93,855.36,750.45,856.14,754.59,853.36z"/>
	<path d="M799.09,826.81c-0.4,0.36-0.89,0.47-1.48,0.33c-0.59-0.14-1.07-0.41-1.43-0.81c-0.71-0.9-0.93-1.57-0.63-1.99
		c0.29-0.42,0.7-0.86,1.21-1.32c1.59-1.44,2.45-2.7,2.56-3.78c0.11-1.08-0.2-2.12-0.94-3.1c-0.74-0.99-1.54-1.97-2.42-2.94
		l-37.63-41.7c-0.92-1.03-1.83-1.94-2.71-2.75c-0.88-0.81-1.85-1.22-2.91-1.25c-1.06-0.03-2.39,0.68-3.98,2.12
		c-0.51,0.46-1.05,0.82-1.6,1.06c-0.55,0.24-1.22-0.06-1.99-0.92s-0.78-1.78-0.02-2.77c2.26-2.76,3.91-4.97,4.94-6.63
		c1.04-1.66,1.8-2.96,2.28-3.92c0.48-0.95,0.98-1.71,1.5-2.29c0.4-0.47,0.87-0.73,1.38-0.79c0.52-0.05,1.09,0.26,1.7,0.94
		l46.81,51.86c0.88,0.97,1.77,1.87,2.67,2.7c0.91,0.83,1.91,1.25,2.99,1.25c1.09,0,2.43-0.72,4.02-2.16
		c0.51-0.46,0.99-0.82,1.44-1.07c0.45-0.25,1.08,0.03,1.91,0.83c0.36,0.4,0.59,0.89,0.7,1.46c0.11,0.58-0.07,1.07-0.52,1.48
		c-1.76,1.38-3.34,2.68-4.76,3.91c-1.42,1.23-2.9,2.54-4.44,3.93c-1.54,1.39-2.98,2.71-4.32,3.98
		C802.09,823.77,800.64,825.2,799.09,826.81z"/>
	<path d="M830.95,796.6c-0.36,0.4-0.84,0.56-1.44,0.49c-0.6-0.07-1.1-0.29-1.5-0.65c-0.81-0.82-1.09-1.46-0.84-1.91
		c0.25-0.45,0.6-0.93,1.06-1.45c1.43-1.6,2.14-2.95,2.13-4.04c-0.01-1.09-0.43-2.08-1.27-2.98c-0.84-0.9-1.75-1.79-2.72-2.66
		l-41.93-37.38c-1.03-0.92-2.03-1.73-2.99-2.44c-0.96-0.71-1.97-1.01-3.03-0.93c-1.05,0.09-2.3,0.93-3.73,2.54
		c-0.46,0.52-0.95,0.92-1.48,1.23c-0.53,0.3-1.22,0.07-2.08-0.7c-0.86-0.77-0.97-1.68-0.32-2.75c1.95-2.99,3.35-5.37,4.2-7.13
		c0.85-1.76,1.46-3.14,1.84-4.14c0.38-1,0.79-1.81,1.25-2.44c0.35-0.51,0.78-0.82,1.29-0.93c0.51-0.11,1.11,0.14,1.8,0.75
		l52.15,46.49c0.97,0.87,1.96,1.67,2.95,2.4c0.99,0.73,2.03,1.04,3.11,0.92c1.08-0.12,2.33-0.98,3.77-2.58
		c0.46-0.52,0.9-0.92,1.32-1.22s1.08-0.09,1.99,0.62c0.4,0.36,0.69,0.82,0.85,1.38c0.17,0.56,0.05,1.07-0.36,1.53
		c-1.6,1.56-3.03,3.03-4.31,4.41c-1.28,1.38-2.61,2.84-3.99,4.39c-1.38,1.55-2.67,3.02-3.86,4.42
		C833.59,793.25,832.31,794.83,830.95,796.6z"/>
	<path d="M884.83,770.84c-1.22,1.86-2.78,3.34-4.69,4.43c-1.91,1.09-3.87,1.67-5.88,1.73c-2.01,0.06-3.82-0.44-5.42-1.48
		c-1.69-1.2-2.78-2.44-3.27-3.72c-0.49-1.28-0.64-2.46-0.45-3.52c0.19-1.07,0.44-1.91,0.76-2.53c0.31-0.62,0.43-0.87,0.34-0.74
		c0.8-1.22,1.65-1.99,2.55-2.32c0.9-0.33,1.51-0.39,1.83-0.18c0.13,0.08,0.28,0.52,0.44,1.32c0.17,0.8,0.84,1.63,2.02,2.49
		c1.11,0.82,2.47,1.2,4.06,1.14c1.6-0.06,2.92-0.89,3.97-2.49c1.18-1.8,1.59-3.87,1.24-6.2c-0.35-2.34-1.11-4.71-2.28-7.13
		s-2.38-4.63-3.63-6.64c-1.12-1.37-2.62-2.31-4.49-2.8c-4.48-0.73-9.16-1.63-14.04-2.72c-4.88-1.08-9.61-2.13-14.17-3.15
		c-4.56-1.01-8.67-1.75-12.31-2.21c-3.05-0.53-5.38-0.63-7.01-0.32c-1.62,0.31-3.2,1.35-4.71,3.11c-0.67,0.75-1.17,1.23-1.49,1.43
		c-0.32,0.21-0.92,0.07-1.79-0.42c-1.13-0.65-1.53-1.34-1.18-2.08s0.8-1.61,1.37-2.61c2.41-4.11,5.03-6.84,7.84-8.21
		c2.82-1.37,6.3-1.7,10.43-1.02c2.58,0.4,5.7,1.03,9.37,1.87c3.67,0.84,7.41,1.64,11.23,2.39c3.82,0.76,7.32,1.35,10.52,1.79
		l0.19-0.29l-19.06-25.95c-1.44-1.86-2.58-2.65-3.41-2.36c-0.83,0.28-1.87,1.39-3.13,3.32c-0.38,0.58-0.74,1.03-1.09,1.35
		s-1.03,0.2-2.03-0.37c-0.38-0.25-0.73-0.64-1.03-1.16c-0.3-0.52-0.31-1-0.01-1.45c1.28-1.82,2.4-3.38,3.34-4.69
		c0.95-1.31,1.96-2.79,3.06-4.46c0.76-1.16,1.35-2.1,1.78-2.83c0.43-0.73,0.88-1.49,1.35-2.28c0.47-0.79,1.08-1.82,1.81-3.08
		c0.34-0.51,0.8-0.73,1.4-0.67c0.6,0.07,1.09,0.23,1.47,0.48c0.92,0.69,1.29,1.28,1.12,1.76c-0.18,0.48-0.43,0.98-0.77,1.49
		c-1.39,2.12-2.1,4.06-2.15,5.81c-0.05,1.76,0.76,3.82,2.42,6.19c2.46,3.53,4.68,6.73,6.66,9.58c1.98,2.86,4.07,5.87,6.26,9.04
		c2.19,3.17,4.27,6.19,6.26,9.04c1.98,2.86,3.61,5.2,4.88,7.04c1.27,1.84,1.95,2.83,2.04,2.98c1.44,2.14,2.95,4.57,4.52,7.29
		c1.57,2.72,2.85,5.53,3.84,8.43c0.99,2.9,1.5,5.77,1.51,8.62C887.21,765.75,886.42,768.4,884.83,770.84z"/>
</g>
<path class="st6" d="M535.6,662.86c78.49-21.13,105.66-91.74,105.66-91.74s45.28-11.91,39.25-41.09
	c-6.04-29.18-32.2-10.06-32.2-10.06c-95.6-30.19-112.71-111.7-112.71-111.7s-17.11,81.51-112.71,111.7c0,0-26.16-19.12-32.2,10.06
	c-6.04,29.18,39.25,41.09,39.25,41.09S457.1,641.73,535.6,662.86z"/>
<path d="M501.2,549.6c0,0-41.5,22.13-66.64-6.71C434.56,542.89,452.9,560.78,501.2,549.6z"/>
<path d="M569.99,549.6c0,0,41.5,22.13,66.64-6.71C636.63,542.89,618.29,560.78,569.99,549.6z"/>
<path d="M487.15,486.97c0,0,20.69-1.1,13.12,16.02c0,0-4.97,6.31-13.32,3.46c-8.35-2.85-18.4-3.3-32.37,3.35L487.15,486.97z"/>
<path d="M585.95,487.55c0,0-22.06-1.68-14.49,15.44c0,0,4.97,6.31,13.32,3.46c8.35-2.85,14-5.91,27.97,0.74L585.95,487.55z"/>
<g>
	<path class="st7" d="M511.41,605.13c0,0,7.73,10.44,31.96,8.45"/>
	<path class="st7" d="M548.26,613.11c0,0,8.19-1.15,11.52-4"/>
</g>
<path class="st7" d="M529.95,567.25c0,0,5.53-6.25,11.3,0"/>
<path class="st8" d="M589.12,708.12c-69.7,35.74-115.26,1.12-115.26,1.12c-14.29,12.65-36.05,11.73-36.05,11.73
	c-43.94-4.86-56.38,5.16-56.38,5.16s58.06,57.72,161.27,55.72c96.04-1.86,147.06-54.17,147.06-54.17s-29.22-12.21-65.11-7.94
	C624.65,719.74,604.89,726.02,589.12,708.12"/>
<circle class="st9" cx="536.92" cy="539.42" r="242.48"/>
<path d="M203.08,488.38c0,0,5.06,31.57,6.55,41.39c1.49,9.83,8.93,10.72,8.93,10.72l26.5,5.96c0,0-15.48,2.98-24.72,5.06
	c-9.23,2.08-10.12,10.42-10.12,10.42l-7.15,40.8l-7.15-40.8c0,0-0.89-8.34-10.12-10.42c-9.23-2.08-24.72-5.06-24.72-5.06l26.5-5.96
	c0,0,7.44-0.89,8.93-10.72C198.02,519.94,203.08,488.38,203.08,488.38z"/>
<path d="M865.95,487.5c0,0,5.06,31.57,6.55,41.39c1.49,9.83,8.93,10.72,8.93,10.72l26.5,5.96c0,0-15.48,2.98-24.72,5.06
	c-9.23,2.08-10.12,10.42-10.12,10.42l-7.15,40.8l-7.15-40.8c0,0-0.89-8.34-10.12-10.42c-9.23-2.08-24.72-5.06-24.72-5.06l26.5-5.96
	c0,0,7.44-0.89,8.93-10.72C860.89,519.07,865.95,487.5,865.95,487.5z"/>
</svg>
