<?xml version="1.0" encoding="utf-8"?>
<!-- Generator: Adobe Illustrator 25.0.1, SVG Export Plug-In . SVG Version: 6.00 Build 0)  -->
<svg version="1.1" id="Capa_1" xmlns="http://www.w3.org/2000/svg" xmlns:xlink="http://www.w3.org/1999/xlink" x="0px" y="0px"
	 viewBox="0 0 1080 1080" style="enable-background:new 0 0 1080 1080;" xml:space="preserve">
<style type="text/css">
	.st0{fill:#9489A8;}
	.st1{fill:#E06577;}
	.st2{fill:#99B1C4;}
	.st3{fill:#F7B06D;}
	.st4{fill:#FFE4AE;}
	.st5{fill:#FFFFFF;}
</style>
<rect x="39.17" y="-131.29" class="st0" width="197.96" height="69.56"/>
<rect x="435.09" y="-131.29" transform="matrix(-1 -1.224647e-16 1.224647e-16 -1 1068.134 -193.0277)" class="st1" width="197.96" height="69.56"/>
<rect x="237.13" y="-131.29" class="st2" width="197.96" height="69.56"/>
<rect x="632.55" y="-131.26" transform="matrix(-1 -1.224647e-16 1.224647e-16 -1 1463.7219 -192.9723)" class="st3" width="198.62" height="69.56"/>
<rect x="830.68" y="-131.29" transform="matrix(-1 -1.224647e-16 1.224647e-16 -1 1859.4749 -193.0277)" class="st4" width="198.12" height="69.56"/>
<path d="M534.23,223.37c0,0,27.31-6.32,49.42,45.79s50.53,111.33,50.53,111.33s11.84,22.9,33.95,26.84
	c22.11,3.95,155.54,22.9,155.54,22.9s21.32,3.16,29.21,23.69s0.79,36.32-20.53,56.85c-21.32,20.53-89.22,86.06-89.22,86.06
	s-26.52,22.11-18.95,65.53l21.32,111.33c0,0,14.21,40.27-17.37,61.59c0,0-18.16,16.58-56.06-7.9l-108.96-58.43
	c0,0-16.72-10.26-28.89-10.26h-0.33c-12.17,0-28.89,10.26-28.89,10.26l-108.96,58.43c-37.9,24.48-56.06,7.9-56.06,7.9
	c-31.58-21.32-17.37-61.59-17.37-61.59l21.32-111.33c7.9-45-18.95-65.53-18.95-65.53s-67.9-65.53-89.22-86.06
	c-21.32-20.53-28.42-36.32-20.53-56.85s29.21-23.69,29.21-23.69s133.43-18.95,155.54-22.9c22.11-3.95,33.95-26.84,33.95-26.84
	s28.42-59.22,50.53-111.33c22.11-52.11,49.42-45.79,49.42-45.79"/>
<g>
	<g>
		<path class="st5" d="M418.91,505.91c-2.48-0.53-4.2-0.97-5.17-1.33c-0.97-0.35-1.46-1.94-1.46-4.77c0-3,1.02-4.64,3.05-4.91
			c2.03-0.27,4.55-0.4,7.56-0.4c11.85,0.18,21,2.35,27.45,6.5c6.45,4.16,11.71,11.27,15.78,21.35l30.24,97.08h1.06l32.36-123.61
			h13.79l43.24,123.61h0.8l29.97-100c1.41-5.66,1.37-9.24-0.13-10.74c-1.5-1.5-5.35-2.25-11.54-2.25c-1.95,0-3.49-0.17-4.64-0.53
			c-1.15-0.35-1.82-2.03-1.99-5.04c0-1.41,0.35-2.74,1.06-3.98c0.7-1.24,1.86-1.86,3.45-1.86c5.66,0.36,10.56,0.58,14.72,0.66
			c4.15,0.09,8.89,0.13,14.19,0.13c2.65,0,4.91,0,6.76,0c1.86,0,3.67-0.04,5.44-0.13c1.77-0.09,3.62-0.17,5.57-0.27
			c1.94-0.09,4.33-0.22,7.16-0.4c1.77,0,3.01,0.62,3.71,1.86c0.7,1.24,1.06,2.57,1.06,3.98c-0.18,3.01-0.84,4.69-1.99,5.04
			c-1.15,0.36-2.7,0.53-4.64,0.53c-6.72,0-12.25,1.28-16.58,3.85c-4.34,2.57-7.47,7.29-9.42,14.19l-43.5,141.38h-12.47
			l-42.97-126.53l-34.22,126.53h-12.47l-44.03-137.93c-1.42-3.54-2.79-6.59-4.11-9.15c-1.33-2.56-2.79-4.68-4.38-6.37
			c-1.59-1.68-3.41-3.05-5.44-4.11C424.17,507.23,421.73,506.44,418.91,505.91z"/>
	</g>
</g>
</svg>
